Genre:Drama | Romance
Language:English
 
http://www.imdb.com/title/tt1296898/

Source:BluRay.x264.DTS-HDChina


Format : MPEG-4
Format profile : Base Media
Codec ID : isom
File size : 2.23 GiB
Duration : 1h 34mn
Overall bit rate : 3 390 Kbps


Video
Format profile : High@L4.1
Format settings, CABAC : Yes
Format settings, ReFrames : 3 frames
Codec ID : avc1
Codec ID/Info : Advanced Video Coding
Duration : 1h 34mn
Bit rate mode : Variable
Bit rate : 3 000 Kbps
Maximum bit rate : 19.7 Mbps
Width : 1 280 pixels
Height : 688 pixels
Display aspect ratio : 1.860
Frame rate mode : Constant
Frame rate : 23.976 fps
Color space : YUV
Chroma subsampling : 4:2:0
Bit depth : 8 bits
Scan type : Progressive
Bits/(Pixel*Frame) : 0.142
Stream size : 1.93 GiB (87%)
Writing library : x264


Audio
ID : 2
Format : AAC
Format/Info : Advanced Audio Codec
Format version : Version 4
Format profile : LC
Format settings, SBR : No
Codec ID : 40
Duration : 1h 34mn
Bit rate mode : Variable
Bit rate : 444 Kbps
Maximum bit rate : 516 Kbps
Channel(s) : 6 channels
Channel positions : Front: L C R, Side: L R, LFE
Sampling rate : 48.0 KHz
Stream size : 299 MiB (13%)


Plot:
A Hollywood-set romantic tale of a guy who is content to live his life without a job yet with the love of his life, a young actress.
 
http://www.pix2links.com/images/34158070513542644158.png
 
http://www.pix2links.com/images/35135803023439393266.png
 
http://www.pix2links.com/images/44607406315709516842.png
 
http://www.pix2links.com/images/30709970494899755846.png
 
http://www.pix2links.com/images/73905039028332295901.png